<?xml version="1.0" encoding="utf-8"?>
<!-- Generator: Adobe Illustrator 27.5.0, SVG Export Plug-In . SVG Version: 6.00 Build 0)  -->
<svg version="1.1" xmlns="http://www.w3.org/2000/svg" xmlns:xlink="http://www.w3.org/1999/xlink" x="0px" y="0px"
	 viewBox="0 0 500 500" style="enable-background:new 0 0 500 500;" xml:space="preserve">
<g id="Background_Simple">
	<g>
		<path style="fill:#3B82F6;" d="M308.207,74.73c0,0-112.814-5.454-204.632,57.108C11.757,194.4,58.411,413.434,89.78,427.255
			s151.96,37.812,245.052-2.897c93.092-40.709,123.635-188.087,110.233-230.421C431.662,151.604,405.633,86.759,308.207,74.73z"/>
		<path style="opacity:0.7;fill:#FFFFFF;" d="M308.207,74.73c0,0-112.814-5.454-204.632,57.108
			C11.757,194.4,58.411,413.434,89.78,427.255s151.96,37.812,245.052-2.897c93.092-40.709,123.635-188.087,110.233-230.421
			C431.662,151.604,405.633,86.759,308.207,74.73z"/>
	</g>
</g>
<g id="Plant">
	<g>
		<g>
			<path style="fill:#ABABAB;" d="M132.551,309.064l0.003-0.008c0.025-0.065-0.005-0.138-0.069-0.166
				c-0.066-0.029-0.142,0.001-0.17,0.067c-3.917,9.046-6.671,18.541-8.97,28.119c-2.219,9.604-3.826,19.348-4.949,29.151
				l-0.701,7.368c-0.108,1.229-0.242,2.457-0.33,3.687l-0.201,3.696c-0.106,2.465-0.257,4.931-0.328,7.399l0.067,7.405l0.082,3.701
				c0.055,1.232,0.143,2.464,0.227,3.695c0.187,2.461,0.337,4.923,0.562,7.378c0.472,4.908,1.21,9.792,1.969,14.653
				c0.01,0.062,0.064,0.11,0.129,0.11c0.071,0,0.129-0.059,0.129-0.13v-0.007c-0.013-2.468-0.117-4.923-0.173-7.379
				c-0.071-2.454-0.285-4.897-0.25-7.352c0.011-2.454-0.053-4.902-0.08-7.35l-0.068-3.67l0.065-3.671l0.033-7.337l0.199-7.333
				l0.076-3.67c0.047-1.222,0.138-2.442,0.205-3.663l0.45-7.329c0.858-9.753,2.198-19.47,4.151-29.075
				C126.56,327.759,128.971,318.201,132.551,309.064z"/>
			<path style="fill:#ABABAB;" d="M133.602,347.431c0.019-0.066-0.016-0.139-0.081-0.162c-0.068-0.023-0.142,0.012-0.165,0.08
				c-2.111,6.096-3.797,12.332-5.223,18.634c-1.362,6.313-2.431,12.708-3.083,19.152c-0.652,6.421-1.369,12.848-1.458,19.305
				c-0.099,6.453,0.004,12.913,0.686,19.36c0.007,0.059,0.054,0.109,0.116,0.116c0.072,0.008,0.136-0.044,0.143-0.116
				c0.746-6.428,1.201-12.84,1.646-19.249c0.455-6.407,0.516-12.832,0.934-19.242c0.387-6.39,1.189-12.753,2.289-19.076
				C130.483,359.909,131.827,353.61,133.602,347.431z"/>
			<path style="fill:#ABABAB;" d="M154.873,360.928c-0.038-0.06-0.118-0.079-0.179-0.04c-5.324,3.371-10.073,7.616-14.222,12.4
				c-2.04,2.428-3.936,4.969-5.561,7.733l-1.143,2.157l-0.894,2.24c-0.322,0.743-0.548,1.508-0.781,2.272
				c-0.23,0.764-0.487,1.525-0.693,2.295c-1.597,6.165-2.656,12.447-2.942,18.761c-0.257,6.311-0.137,12.631,0.706,18.897
				c0.009,0.059,0.058,0.108,0.12,0.112c0.072,0.005,0.134-0.049,0.139-0.12l1.621-18.706c0.646-6.184,1.042-12.405,2.37-18.444
				c0.169-0.752,0.385-1.488,0.576-2.234c0.193-0.745,0.38-1.493,0.656-2.203l0.759-2.162l0.977-2.042
				c1.44-2.702,3.202-5.287,5.096-7.737c3.798-4.902,8.267-9.37,13.354-12.998l0.007-0.005
				C154.894,361.063,154.91,360.986,154.873,360.928z"/>
			<path style="fill:#ABABAB;" d="M144.578,384.96c-2.899,1.871-4.837,4.814-6.468,7.775c-1.554,3.027-2.778,6.234-3.624,9.525
				c-0.255,0.815-0.455,1.641-0.632,2.471l-0.587,2.487c-0.299,1.67-0.533,3.358-0.628,5.051c-0.022,1.697-0.071,3.392,0.044,5.084
				c0.141,1.691,0.333,3.379,0.667,5.052c0.012,0.048,0.052,0.093,0.104,0.104c0.072,0.014,0.141-0.032,0.155-0.104
				c0.41-1.669,0.678-3.323,0.896-4.973c0.263-1.647,0.519-3.283,0.716-4.921c0.24-1.631,0.456-3.257,0.583-4.901
				c0.228-1.621,0.348-3.279,0.703-4.881c0.569-3.243,1.507-6.408,2.774-9.436c1.262-3.002,2.904-5.995,5.43-8.11l0.02-0.017
				c0.049-0.041,0.061-0.113,0.025-0.168C144.717,384.939,144.638,384.922,144.578,384.96z"/>
			<path style="fill:#ABABAB;" d="M114.748,403.697c-0.7-8.304-2.069-16.525-3.364-24.742c-1.299-8.218-2.73-16.411-4.233-24.589
				c-1.557-8.169-3.184-16.322-4.946-24.446c-0.015-0.067-0.081-0.113-0.15-0.1c-0.071,0.013-0.117,0.08-0.104,0.151
				c1.421,8.186,2.707,16.395,3.921,24.611c1.246,8.211,2.419,16.432,3.459,24.666c1.015,8.239,1.806,16.497,2.839,24.721
				l3.038,24.72c0.007,0.062,0.059,0.112,0.123,0.115c0.072,0.003,0.132-0.052,0.136-0.124c0.095-2.083,0.097-4.166,0.148-6.254
				c0.019-2.087-0.085-4.165-0.122-6.251C115.416,412.003,115.06,407.852,114.748,403.697z"/>
			<path style="fill:#ABABAB;" d="M109.768,403.578c-0.444-3.289-1.049-6.559-1.676-9.818l-1.166-4.848
				c-0.382-1.616-0.744-3.236-1.217-4.832c-1.657-6.433-3.774-12.756-6.347-18.884l-0.996-2.285l-1.107-2.236
				c-0.704-1.505-1.555-2.94-2.362-4.39c-1.736-2.828-3.538-5.654-5.994-7.947c-0.05-0.046-0.128-0.046-0.178,0.002
				c-0.051,0.05-0.053,0.131-0.003,0.183l0.013,0.013c2.27,2.353,3.924,5.257,5.483,8.127c0.722,1.477,1.486,2.928,2.103,4.453
				l0.975,2.26l0.865,2.307c2.3,6.147,4.146,12.466,5.533,18.89c0.757,3.195,1.258,6.451,1.877,9.672l0.777,4.867
				c0.281,1.618,0.628,3.225,0.855,4.854c0.518,3.246,1.115,6.484,1.682,9.733c0.503,3.257,1.098,6.509,1.785,9.763
				c0.012,0.059,0.065,0.107,0.128,0.107c0.072,0,0.13-0.058,0.131-0.129c0.015-3.317-0.063-6.637-0.232-9.952
				C110.505,410.176,110.113,406.88,109.768,403.578z"/>
			<path style="fill:#ABABAB;" d="M102.897,404.001c-1.539-4.357-3.319-8.622-5.259-12.804c-1.991-4.159-4.14-8.239-6.614-12.125
				c-0.038-0.055-0.116-0.077-0.175-0.042c-0.062,0.037-0.082,0.116-0.046,0.178c2.161,4.036,3.988,8.246,5.645,12.504
				c1.686,4.247,3.205,8.556,4.478,12.935c1.299,4.374,2.229,8.832,3.393,13.225c1.223,4.39,2.213,8.825,3.563,13.271
				c0.016,0.053,0.066,0.095,0.125,0.096c0.072,0.001,0.131-0.057,0.132-0.129c0.065-4.638-0.39-9.274-1.292-13.815
				C106.032,412.727,104.426,408.355,102.897,404.001z"/>
			<path style="fill:#ABABAB;" d="M102.611,418.514c-0.787-2.728-2.13-5.27-3.655-7.665c-1.498-2.407-3.237-4.683-5.321-6.611
				c-1.073-0.93-2.171-1.825-3.384-2.552c-1.195-0.747-2.463-1.378-3.839-1.735c-0.06-0.016-0.124,0.014-0.15,0.072
				c-0.029,0.065,0,0.141,0.066,0.171l0.016,0.007c2.488,1.106,4.59,2.94,6.368,4.947c1.801,2.01,3.238,4.316,4.437,6.717
				c1.26,2.385,1.911,5.022,3.007,7.479c0.484,1.26,0.964,2.528,1.523,3.786c0.474,1.284,1,2.564,1.669,3.837l0.004,0.007
				c0.021,0.04,0.063,0.069,0.112,0.071c0.073,0.003,0.136-0.054,0.139-0.128c0.059-1.421-0.024-2.834-0.158-4.244
				C103.239,421.276,102.945,419.892,102.611,418.514z"/>
		</g>
		<path style="fill:#3B82F6;" d="M103.125,341.808c0,0-13.607-3.14-16.747-17.794c-3.14-14.654,6.978-8.374-2.093-31.401
			c-9.072-23.028-6.978-28.261-3.838-34.89c3.14-6.629,4.885-4.536,7.676,4.187c2.791,8.722,12.909,22.33,16.747,47.8
			C108.707,335.179,103.125,341.808,103.125,341.808z"/>
		<path style="fill:#3B82F6;" d="M129.991,317.036c0,0-9.072-3.14-9.421-20.236c-0.349-17.096,6.629-13.607,7.676-34.89
			c1.047-21.283,2.442-36.286,6.28-36.635c3.838-0.349,13.956,10.467,17.445,34.192c3.489,23.725-4.536,39.426-11.514,46.404
			C133.479,312.849,129.991,317.036,129.991,317.036z"/>
		<path style="fill:#3B82F6;" d="M98.24,362.393c0,0-2.093-12.56-6.28-18.492c-4.187-5.931-13.258-11.165-19.19-22.679
			c-5.931-11.514-12.56-17.096-12.212-0.698c0.349,16.398,7.676,24.772,16.747,30.354C86.378,356.462,98.24,362.393,98.24,362.393z"
			/>
		<path style="fill:#3B82F6;" d="M94.402,384.025c0,0-8.374-16.049-20.585-27.912c-12.212-11.863-21.981-17.794-18.492-11.863
			c3.489,5.931,7.676,5.583,13.607,16.049c5.931,10.467,4.187,18.143,12.561,24.074C89.867,390.306,94.402,384.025,94.402,384.025z"
			/>
		<path style="fill:#3B82F6;" d="M93.356,404.61c-0.349-1.047-0.698-8.722-12.56-15.003c-11.863-6.28-23.028-3.838-21.632-0.698
			c1.396,3.14,8.722,8.374,16.049,11.514C82.54,403.564,93.356,404.61,93.356,404.61z"/>
		<path style="fill:#3B82F6;" d="M129.293,363.091c0,0-5.233-6.629-2.443-20.585c2.791-13.956,9.071-10.467,16.05-17.794
			c6.978-7.327,5.582-8.374,12.56-16.049c6.978-7.676,13.258-11.863,16.049-8.723c2.791,3.14-1.395,12.91-5.582,18.492
			c-4.187,5.582-10.816,8.374-13.956,15.352c-3.14,6.978-1.744,18.143-9.769,23.377
			C134.177,362.393,129.293,363.091,129.293,363.091z"/>
		<path style="fill:#3B82F6;" d="M146.738,366.929c0,0,12.561-14.305,21.632-24.772c9.072-10.467,12.56-18.492,12.909-11.514
			c0.349,6.978,3.14,12.561-4.187,21.632C169.765,361.347,146.738,366.929,146.738,366.929z"/>
		<path style="fill:#3B82F6;" d="M140.109,389.957c0,0-0.349-5.583,19.538-18.492c19.887-12.909,28.261-15.352,26.168-10.118
			c-2.093,5.233-10.816,10.467-20.237,19.887C156.158,390.654,140.109,389.957,140.109,389.957z"/>
		<path style="fill:none;stroke:#ABABAB;stroke-linecap:round;stroke-linejoin:round;stroke-miterlimit:10;" d="M103.955,340.321
			c0,0-4.668-25.03-9.552-42.824c-4.885-17.794-8.025-28.61-8.025-28.61"/>
		<path style="fill:none;stroke:#ABABAB;stroke-linecap:round;stroke-linejoin:round;stroke-miterlimit:10;" d="M129.187,317.299
			c0,0,8.479-27.129,11.271-43.527c2.791-16.398-0.349-28.61-1.745-35.937"/>
		<path style="fill:none;stroke:#ABABAB;stroke-linecap:round;stroke-linejoin:round;stroke-miterlimit:10;" d="M97.141,361.869
			c0,0-5.18-9.245-12.856-18.317c-7.676-9.072-13.607-13.956-17.096-22.678"/>
		<path style="fill:none;stroke:#ABABAB;stroke-linecap:round;stroke-linejoin:round;stroke-miterlimit:10;" d="M129.293,363.091
			c0,0,2.791-16.747,9.42-25.47c6.629-8.722,19.887-22.329,25.121-31.052"/>
		<path style="fill:none;stroke:#ABABAB;stroke-linecap:round;stroke-linejoin:round;stroke-miterlimit:10;" d="M92.536,404.229
			c0,0-11.741-7.644-20.114-11.831"/>
		<path style="fill:#ABABAB;" d="M126.68,478.229h-15.36c-2.719,0-5.175-1.629-6.221-4.138
			c-5.018-12.024-18.417-46.73-10.347-56.571c7.688-9.375,40.81-9.375,48.498,0c8.07,9.841-5.33,44.547-10.348,56.571
			C131.855,476.6,129.398,478.229,126.68,478.229z"/>
	</g>
</g>
<g id="Device">
	<g>
		<g>
			<path style="fill:#FFFFFF;stroke:#263238;stroke-linecap:round;stroke-linejoin:round;stroke-miterlimit:10;" d="M326.585,55.988
				v311.494c0,8.55-6.931,15.48-15.481,15.48H176.511c-8.55,0-15.481-6.931-15.481-15.481V55.98c0-8.545,6.927-15.473,15.473-15.473
				h57.771l0.048,0.177c1.44,5.181,4.755,8.552,8.431,8.552h2.108c3.677,0,6.991-3.371,8.431-8.552l0.056-0.177h57.755
				C319.654,40.507,326.585,47.438,326.585,55.988z"/>
		</g>
		<g>
			<path style="fill:#DBDBDB;stroke:#263238;stroke-linecap:round;stroke-linejoin:round;stroke-miterlimit:10;" d="M326.585,70.481
				V55.988c0-8.55-6.931-15.481-15.481-15.481h-57.755l-0.056,0.177c-1.44,5.181-4.755,8.552-8.431,8.552h-2.108
				c-3.676,0-6.991-3.371-8.431-8.552l-0.048-0.177h-57.771c-8.545,0-15.473,6.927-15.473,15.473v14.501H326.585z"/>
			<path style="fill:#DBDBDB;stroke:#263238;stroke-linecap:round;stroke-linejoin:round;stroke-miterlimit:10;" d="
				M161.031,365.046v2.436c0,8.55,6.931,15.481,15.481,15.481h134.593c8.55,0,15.481-6.931,15.481-15.48v-2.436H161.031z"/>
		</g>
		<g>
			<path style="fill:#3B82F6;stroke:#263238;stroke-linecap:round;stroke-linejoin:round;stroke-miterlimit:10;" d="
				M337.113,130.386V99.274h-2.814v-39.83c0-13.56-10.992-24.552-24.552-24.552H177.869c-13.559,0-24.551,10.992-24.551,24.552
				v316.503c0,13.56,10.992,24.552,24.551,24.552h131.878c13.559,0,24.552-10.992,24.552-24.552V156.902h2.814v-18.384h-2.814
				v-8.131H337.113z M326.585,358.408c0,13.564-10.998,24.554-24.554,24.554H185.585c-13.556,0-24.554-10.99-24.554-24.554V65.053
				c0-13.556,10.998-24.546,24.554-24.546h48.69l0.048,0.177c1.44,5.181,4.755,8.552,8.431,8.552h2.108
				c3.677,0,6.991-3.371,8.431-8.552l0.056-0.177h48.682c13.556,0,24.554,10.99,24.554,24.546V358.408z"/>
			<path style="fill:#263238;stroke:#263238;stroke-linecap:round;stroke-linejoin:round;stroke-miterlimit:10;" d="M307.777,38.274
				H179.839c-13.077,0-23.678,10.601-23.678,23.679v311.485c0,13.077,10.601,23.678,23.678,23.678h127.939
				c13.077,0,23.678-10.601,23.678-23.678V61.953C331.456,48.875,320.855,38.274,307.777,38.274z M326.585,359.281
				c0,13.079-10.602,23.681-23.681,23.681H184.712c-13.079,0-23.681-10.602-23.681-23.681V64.18
				c0-13.074,10.599-23.673,23.673-23.673h49.571l0.048,0.177c1.44,5.181,4.755,8.552,8.431,8.552h2.108
				c3.677,0,6.991-3.371,8.431-8.552l0.056-0.177h49.555c13.079,0,23.681,10.602,23.681,23.681V359.281z"/>
			<path style="fill:#FFFFFF;" d="M245.607,41.681c0-1.273-1.032-2.305-2.305-2.305c-1.273,0-2.305,1.032-2.305,2.305
				c0,1.273,1.032,2.305,2.305,2.305C244.576,43.986,245.607,42.954,245.607,41.681z"/>
			<g>
				<g>
					<path style="fill:#263238;" d="M175.746,50.513c0,2.332-2.619,3.172-2.63,4.951v0.122h2.542v0.785h-3.392v-0.663
						c0-2.497,2.619-2.984,2.619-5.161c0-0.795-0.266-1.215-0.906-1.215c-0.63,0-0.906,0.453-0.906,1.138v0.685h-0.806v-0.63
						c0-1.183,0.541-1.967,1.734-1.967C175.204,48.557,175.746,49.331,175.746,50.513z"/>
					<path style="fill:#263238;" d="M179.979,50.502v0.199c0,0.796-0.32,1.36-0.939,1.592c0.651,0.243,0.939,0.829,0.939,1.602
						v0.597c0,1.182-0.552,1.956-1.746,1.956c-1.182,0-1.734-0.774-1.734-1.956v-0.531h0.806v0.586c0,0.696,0.287,1.116,0.906,1.116
						c0.63,0,0.906-0.409,0.906-1.193v-0.597c0-0.763-0.321-1.127-0.973-1.149h-0.464V51.95h0.508
						c0.575-0.022,0.929-0.387,0.929-1.061v-0.354c0-0.796-0.277-1.204-0.906-1.204c-0.619,0-0.906,0.431-0.906,1.127v0.398h-0.806
						v-0.354c0-1.183,0.552-1.945,1.734-1.945C179.427,48.557,179.979,49.32,179.979,50.502z"/>
					<path style="fill:#263238;" d="M181.65,51.088v1.072h-0.829v-1.072H181.65z M181.65,55.298v1.072h-0.829v-1.072H181.65z"/>
					<path style="fill:#263238;" d="M183.396,51.785c0.243-0.42,0.63-0.641,1.15-0.641c0.995,0,1.436,0.729,1.436,1.834v1.514
						c0,1.182-0.563,1.956-1.745,1.956c-1.183,0-1.735-0.774-1.735-1.956v-0.519h0.806v0.574c0,0.696,0.287,1.116,0.906,1.116
						c0.619,0,0.906-0.42,0.906-1.116v-1.503c0-0.696-0.287-1.116-0.906-1.116c-0.475,0-0.795,0.265-0.873,0.829v0.177h-0.806
						l0.21-4.299h3.05v0.774h-2.277L183.396,51.785z"/>
					<path style="fill:#263238;" d="M190.282,50.491v0.144h-0.806v-0.199c0-0.696-0.287-1.105-0.917-1.105
						c-0.652,0-0.94,0.42-0.94,1.249v1.735c0.21-0.53,0.63-0.829,1.249-0.829c0.995,0,1.437,0.719,1.437,1.834v1.172
						c0,1.182-0.587,1.956-1.769,1.956c-1.194,0-1.779-0.774-1.779-1.956v-3.945c0-1.227,0.553-1.989,1.779-1.989
						C189.73,48.557,190.282,49.309,190.282,50.491z M187.619,53.387v1.16c0,0.696,0.287,1.116,0.917,1.116
						c0.619,0,0.917-0.42,0.917-1.116v-1.16c0-0.697-0.298-1.116-0.917-1.116C187.906,52.271,187.619,52.69,187.619,53.387z"/>
				</g>
				<g>
					<rect x="272.551" y="50.832" style="fill:#263238;" width="2.184" height="5.461"/>
					<rect x="275.463" y="49.737" style="fill:#263238;" width="2.184" height="6.555"/>
					<rect x="278.376" y="48.961" style="fill:#263238;" width="2.184" height="7.331"/>
					<rect x="281.288" y="47.61" style="fill:#263238;" width="2.184" height="8.682"/>
					<g>
						<g>
							<path style="fill:#263238;" d="M310.503,56.142h-13.106v-8.009h13.106V56.142z M298.125,55.414h11.65v-6.553h-11.65V55.414z"
								/>
						</g>
						<g>
							<rect x="299.217" y="49.654" style="fill:#263238;" width="6.917" height="4.968"/>
						</g>
						<g>
							<rect x="310.048" y="51.194" style="fill:#263238;" width="1.648" height="1.887"/>
						</g>
					</g>
					<g>
						<path style="fill:#263238;" d="M292.592,54.4c-0.085,0-0.172-0.022-0.251-0.069c-2.667-1.585-4.43-0.114-4.503-0.052
							c-0.204,0.177-0.512,0.154-0.689-0.049c-0.177-0.204-0.158-0.509,0.045-0.687c0.095-0.083,2.349-2.014,5.649-0.054
							c0.232,0.138,0.309,0.439,0.17,0.671C292.921,54.315,292.758,54.4,292.592,54.4z"/>
					</g>
					<g>
						<path style="fill:#263238;" d="M293.578,52.755c-0.085,0-0.172-0.022-0.251-0.069c-3.856-2.293-6.448-0.074-6.475-0.054
							c-0.203,0.18-0.511,0.159-0.69-0.044c-0.179-0.203-0.16-0.512,0.044-0.69c0.032-0.029,3.158-2.706,7.622-0.054
							c0.232,0.138,0.309,0.439,0.17,0.671C293.907,52.67,293.745,52.755,293.578,52.755z"/>
					</g>
					<g>
						<path style="fill:#263238;" d="M294.474,50.849c-0.085,0-0.172-0.022-0.251-0.069c-4.884-2.904-8.131-0.17-8.267-0.051
							c-0.204,0.177-0.513,0.155-0.69-0.048c-0.178-0.203-0.158-0.511,0.045-0.688c0.038-0.035,3.896-3.334,9.413-0.054
							c0.232,0.138,0.309,0.439,0.17,0.671C294.803,50.764,294.64,50.849,294.474,50.849z"/>
					</g>
					<g>
						<path style="fill:#263238;" d="M291.118,55.22c0,0.678-0.55,1.228-1.228,1.228c-0.678,0-1.228-0.55-1.228-1.228
							s0.55-1.228,1.228-1.228C290.568,53.992,291.118,54.542,291.118,55.22z"/>
					</g>
				</g>
			</g>
		</g>
	</g>
</g>
<g id="Calendar">
	<g>
		<path style="fill:#3B82F6;stroke:#263238;stroke-linecap:round;stroke-linejoin:round;stroke-miterlimit:10;" d="M298.49,290.82
			H189.94c-2.945,0-5.332-2.387-5.332-5.332v-37.746c0-2.945,2.387-5.332,5.332-5.332h108.55c2.945,0,5.332,2.387,5.332,5.332
			v37.746C303.822,288.433,301.435,290.82,298.49,290.82z"/>
		<g>
			<path style="fill:#FFFFFF;stroke:#263238;stroke-linecap:round;stroke-linejoin:round;stroke-miterlimit:10;" d="M296.826,224.29
				H191.605c-4.895,0-8.863-3.968-8.863-8.863v-97.056h122.948v97.056C305.689,220.322,301.721,224.29,296.826,224.29z"/>
			
				<rect x="182.742" y="118.371" style="fill:#3B82F6;stroke:#263238;stroke-linecap:round;stroke-linejoin:round;stroke-miterlimit:10;" width="122.948" height="9.123"/>
			<g>
				
					<rect x="189.651" y="134.701" style="fill:#FFFFFF;stroke:#263238;stroke-linecap:round;stroke-linejoin:round;stroke-miterlimit:10;" width="13.82" height="13.82"/>
				
					<rect x="213.478" y="134.701" style="fill:#FFFFFF;stroke:#263238;stroke-linecap:round;stroke-linejoin:round;stroke-miterlimit:10;" width="13.82" height="13.82"/>
				
					<rect x="237.305" y="134.701" style="fill:#FFFFFF;stroke:#263238;stroke-linecap:round;stroke-linejoin:round;stroke-miterlimit:10;" width="13.82" height="13.82"/>
				
					<rect x="261.133" y="134.701" style="fill:#FFFFFF;stroke:#263238;stroke-linecap:round;stroke-linejoin:round;stroke-miterlimit:10;" width="13.82" height="13.82"/>
				
					<rect x="284.96" y="134.701" style="fill:#FFFFFF;stroke:#263238;stroke-linecap:round;stroke-linejoin:round;stroke-miterlimit:10;" width="13.82" height="13.82"/>
			</g>
			<g>
				
					<rect x="189.651" y="155.669" style="fill:#FFFFFF;stroke:#263238;stroke-linecap:round;stroke-linejoin:round;stroke-miterlimit:10;" width="13.82" height="13.82"/>
				
					<rect x="213.478" y="155.669" style="fill:#3B82F6;stroke:#263238;stroke-linecap:round;stroke-linejoin:round;stroke-miterlimit:10;" width="13.82" height="13.82"/>
				
					<rect x="237.305" y="155.669" style="fill:#FFFFFF;stroke:#263238;stroke-linecap:round;stroke-linejoin:round;stroke-miterlimit:10;" width="13.82" height="13.82"/>
				
					<rect x="261.133" y="155.669" style="fill:#FFFFFF;stroke:#263238;stroke-linecap:round;stroke-linejoin:round;stroke-miterlimit:10;" width="13.82" height="13.82"/>
				
					<rect x="284.96" y="155.669" style="fill:#3B82F6;stroke:#263238;stroke-linecap:round;stroke-linejoin:round;stroke-miterlimit:10;" width="13.82" height="13.82"/>
			</g>
			<g>
				
					<rect x="189.651" y="176.636" style="fill:#FFFFFF;stroke:#263238;stroke-linecap:round;stroke-linejoin:round;stroke-miterlimit:10;" width="13.82" height="13.82"/>
				
					<rect x="213.478" y="176.636" style="fill:#FFFFFF;stroke:#263238;stroke-linecap:round;stroke-linejoin:round;stroke-miterlimit:10;" width="13.82" height="13.82"/>
				
					<rect x="237.305" y="176.636" style="fill:#3B82F6;stroke:#263238;stroke-linecap:round;stroke-linejoin:round;stroke-miterlimit:10;" width="13.82" height="13.82"/>
				
					<rect x="261.133" y="176.636" style="fill:#FFFFFF;stroke:#263238;stroke-linecap:round;stroke-linejoin:round;stroke-miterlimit:10;" width="13.82" height="13.82"/>
				
					<rect x="284.96" y="176.636" style="fill:#FFFFFF;stroke:#263238;stroke-linecap:round;stroke-linejoin:round;stroke-miterlimit:10;" width="13.82" height="13.82"/>
			</g>
			<g>
				
					<rect x="189.651" y="197.604" style="fill:#FFFFFF;stroke:#263238;stroke-linecap:round;stroke-linejoin:round;stroke-miterlimit:10;" width="13.82" height="13.82"/>
				
					<rect x="213.478" y="197.604" style="fill:#FFFFFF;stroke:#263238;stroke-linecap:round;stroke-linejoin:round;stroke-miterlimit:10;" width="13.82" height="13.82"/>
				
					<rect x="237.305" y="197.604" style="fill:#FFFFFF;stroke:#263238;stroke-linecap:round;stroke-linejoin:round;stroke-miterlimit:10;" width="13.82" height="13.82"/>
				
					<rect x="261.133" y="197.604" style="fill:#FFFFFF;stroke:#263238;stroke-linecap:round;stroke-linejoin:round;stroke-miterlimit:10;" width="13.82" height="13.82"/>
				
					<rect x="284.96" y="197.604" style="fill:#FFFFFF;stroke:#263238;stroke-linecap:round;stroke-linejoin:round;stroke-miterlimit:10;" width="13.82" height="13.82"/>
			</g>
		</g>
		
			<line style="fill:none;stroke:#263238;stroke-linecap:round;stroke-linejoin:round;stroke-miterlimit:10;" x1="180.737" y1="322.539" x2="309.694" y2="322.539"/>
		<g>
			<g>
				
					<line style="fill:none;stroke:#263238;stroke-linecap:round;stroke-linejoin:round;stroke-miterlimit:10;" x1="182.434" y1="330.684" x2="210.261" y2="330.684"/>
				
					<line style="fill:none;stroke:#263238;stroke-linecap:round;stroke-linejoin:round;stroke-miterlimit:10;" x1="182.434" y1="334.756" x2="210.261" y2="334.756"/>
				
					<line style="fill:none;stroke:#263238;stroke-linecap:round;stroke-linejoin:round;stroke-miterlimit:10;" x1="182.434" y1="338.828" x2="210.261" y2="338.828"/>
				
					<line style="fill:none;stroke:#263238;stroke-linecap:round;stroke-linejoin:round;stroke-miterlimit:10;" x1="182.434" y1="342.901" x2="210.261" y2="342.901"/>
			</g>
			<g>
				
					<line style="fill:none;stroke:#263238;stroke-linecap:round;stroke-linejoin:round;stroke-miterlimit:10;" x1="215.012" y1="330.684" x2="242.84" y2="330.684"/>
				
					<line style="fill:none;stroke:#263238;stroke-linecap:round;stroke-linejoin:round;stroke-miterlimit:10;" x1="215.012" y1="334.756" x2="242.84" y2="334.756"/>
				
					<line style="fill:none;stroke:#263238;stroke-linecap:round;stroke-linejoin:round;stroke-miterlimit:10;" x1="215.012" y1="338.828" x2="242.84" y2="338.828"/>
				
					<line style="fill:none;stroke:#263238;stroke-linecap:round;stroke-linejoin:round;stroke-miterlimit:10;" x1="215.012" y1="342.901" x2="242.84" y2="342.901"/>
			</g>
			<g>
				
					<line style="fill:none;stroke:#263238;stroke-linecap:round;stroke-linejoin:round;stroke-miterlimit:10;" x1="247.591" y1="330.684" x2="275.418" y2="330.684"/>
				
					<line style="fill:none;stroke:#263238;stroke-linecap:round;stroke-linejoin:round;stroke-miterlimit:10;" x1="247.591" y1="334.756" x2="275.418" y2="334.756"/>
				
					<line style="fill:none;stroke:#263238;stroke-linecap:round;stroke-linejoin:round;stroke-miterlimit:10;" x1="247.591" y1="338.828" x2="275.418" y2="338.828"/>
				
					<line style="fill:none;stroke:#263238;stroke-linecap:round;stroke-linejoin:round;stroke-miterlimit:10;" x1="247.591" y1="342.901" x2="275.418" y2="342.901"/>
			</g>
			<g>
				
					<line style="fill:none;stroke:#263238;stroke-linecap:round;stroke-linejoin:round;stroke-miterlimit:10;" x1="280.169" y1="330.684" x2="307.997" y2="330.684"/>
				
					<line style="fill:none;stroke:#263238;stroke-linecap:round;stroke-linejoin:round;stroke-miterlimit:10;" x1="280.169" y1="334.756" x2="307.997" y2="334.756"/>
				
					<line style="fill:none;stroke:#263238;stroke-linecap:round;stroke-linejoin:round;stroke-miterlimit:10;" x1="280.169" y1="338.828" x2="307.997" y2="338.828"/>
				
					<line style="fill:none;stroke:#263238;stroke-linecap:round;stroke-linejoin:round;stroke-miterlimit:10;" x1="280.169" y1="342.901" x2="307.997" y2="342.901"/>
			</g>
		</g>
	</g>
</g>
<g id="Text">
	<g>
		<path style="fill:#263238;" d="M191.609,101.65V83.533h1.722l5.145,12.034V83.533h2.102v18.117h-1.61l-5.212-12.369v12.369
			H191.609z"/>
		<path style="fill:#263238;" d="M203.419,101.65V83.533h7.023v1.879h-4.496v5.994h3.646v1.79h-3.646v6.643h4.541v1.812H203.419z"/>
		<path style="fill:#263238;" d="M211.404,101.65l3.78-9.484l-3.713-8.634h2.348l2.751,6.397l2.505-6.397h2.348l-3.802,8.835
			l3.981,9.282h-2.348l-2.953-6.822l-2.55,6.822H211.404z"/>
		<path style="fill:#263238;" d="M225.293,101.65V85.412h-3.064v-1.879h8.567v1.879h-2.975v16.238H225.293z"/>
		<path style="fill:#263238;" d="M237.662,101.65V83.533h7.023v1.879h-4.496v5.994h3.646v1.79h-3.646v6.643h4.541v1.812H237.662z"/>
		<path style="fill:#263238;" d="M249.918,101.65l-4.048-18.117h2.371l2.863,13.353l2.729-13.353h2.304l-4.004,18.117H249.918z"/>
		<path style="fill:#263238;" d="M258.06,101.65V83.533h7.023v1.879h-4.496v5.994h3.646v1.79h-3.646v6.643h4.541v1.812H258.06z"/>
		<path style="fill:#263238;" d="M267.163,101.65V83.533h1.722l5.145,12.034V83.533h2.102v18.117h-1.61l-5.212-12.369v12.369
			H267.163z"/>
		<path style="fill:#263238;" d="M280.963,101.65V85.412h-3.065v-1.879h8.567v1.879h-2.975v16.238H280.963z"/>
		<path style="fill:#263238;" d="M292.482,101.851c-1.044,0-1.912-0.223-2.606-0.671c-0.693-0.447-1.219-1.066-1.577-1.856
			c-0.358-0.79-0.567-1.707-0.626-2.751l2.237-0.604c0.045,0.641,0.146,1.26,0.302,1.856c0.156,0.596,0.414,1.085,0.771,1.465
			c0.358,0.38,0.858,0.57,1.499,0.57c0.656,0,1.152-0.182,1.488-0.548c0.335-0.365,0.503-0.891,0.503-1.577
			c0-0.82-0.186-1.48-0.559-1.979c-0.373-0.499-0.843-1.003-1.409-1.51l-3.042-2.684c-0.597-0.522-1.037-1.092-1.32-1.711
			c-0.283-0.619-0.425-1.383-0.425-2.293c0-1.327,0.38-2.356,1.14-3.086c0.76-0.73,1.797-1.096,3.109-1.096
			c0.716,0,1.346,0.093,1.89,0.279c0.544,0.187,0.999,0.474,1.364,0.861c0.365,0.388,0.656,0.876,0.872,1.465
			c0.216,0.589,0.361,1.279,0.436,2.069l-2.147,0.581c-0.044-0.596-0.134-1.144-0.268-1.644c-0.134-0.5-0.369-0.902-0.704-1.208
			c-0.335-0.305-0.816-0.458-1.443-0.458c-0.626,0-1.115,0.168-1.465,0.503c-0.35,0.335-0.525,0.831-0.525,1.487
			c0,0.552,0.093,1.007,0.279,1.364c0.186,0.358,0.488,0.723,0.906,1.096l3.064,2.684c0.686,0.597,1.29,1.308,1.812,2.136
			c0.522,0.827,0.783,1.808,0.783,2.941c0,0.895-0.187,1.666-0.559,2.315c-0.373,0.649-0.884,1.144-1.532,1.487
			C294.081,101.68,293.332,101.851,292.482,101.851z"/>
	</g>
	<g>
		<path style="fill:#263238;" d="M219.84,263.367c-0.967,0-1.716-0.202-2.25-0.606c-0.533-0.405-0.903-0.949-1.112-1.634
			c-0.208-0.685-0.311-1.449-0.311-2.291v-4.817c0-0.921,0.103-1.725,0.311-2.41c0.208-0.684,0.579-1.215,1.112-1.592
			c0.533-0.376,1.283-0.565,2.25-0.565c0.853,0,1.53,0.158,2.029,0.473c0.5,0.314,0.859,0.764,1.079,1.348
			c0.218,0.584,0.328,1.286,0.328,2.106v1.078h-1.801v-0.96c0-0.506-0.026-0.953-0.077-1.339c-0.051-0.388-0.188-0.688-0.413-0.902
			c-0.225-0.213-0.6-0.32-1.128-0.32c-0.539,0-0.932,0.115-1.179,0.346c-0.248,0.23-0.407,0.555-0.48,0.976
			c-0.074,0.422-0.11,0.913-0.11,1.475v5.407c0,0.685,0.056,1.227,0.169,1.626c0.111,0.399,0.296,0.683,0.555,0.85
			c0.258,0.169,0.606,0.254,1.045,0.254c0.517,0,0.887-0.115,1.112-0.345c0.225-0.23,0.365-0.548,0.421-0.951
			c0.056-0.404,0.085-0.876,0.085-1.416v-1.01h1.801v1.01c0,0.832-0.1,1.564-0.303,2.199c-0.201,0.635-0.55,1.128-1.045,1.482
			C221.434,263.19,220.738,263.367,219.84,263.367z"/>
		<path style="fill:#263238;" d="M228.582,263.367c-0.921,0-1.657-0.18-2.207-0.539c-0.55-0.359-0.943-0.873-1.179-1.541
			c-0.236-0.669-0.354-1.452-0.354-2.35v-5.172c0-0.898,0.121-1.67,0.362-2.316s0.635-1.141,1.179-1.483
			c0.544-0.343,1.278-0.514,2.199-0.514c0.92,0,1.651,0.176,2.189,0.522c0.539,0.348,0.929,0.843,1.171,1.483
			c0.241,0.64,0.362,1.409,0.362,2.307v5.189c0,0.887-0.121,1.662-0.362,2.325c-0.241,0.662-0.632,1.176-1.171,1.541
			C230.232,263.185,229.502,263.367,228.582,263.367z M228.582,261.869c0.505,0,0.887-0.104,1.145-0.313
			c0.259-0.207,0.433-0.499,0.522-0.876c0.09-0.376,0.136-0.817,0.136-1.322v-5.98c0-0.506-0.045-0.94-0.136-1.306
			c-0.089-0.365-0.263-0.646-0.522-0.842c-0.258-0.196-0.64-0.295-1.145-0.295c-0.506,0-0.891,0.099-1.154,0.295
			c-0.265,0.196-0.441,0.477-0.531,0.842c-0.09,0.366-0.134,0.801-0.134,1.306v5.98c0,0.504,0.044,0.946,0.134,1.322
			c0.089,0.377,0.266,0.669,0.531,0.876C227.691,261.764,228.076,261.869,228.582,261.869z"/>
		<path style="fill:#263238;" d="M234.174,263.216V249.57h1.297l3.876,9.063v-9.063h1.583v13.646h-1.213l-3.925-9.317v9.317H234.174
			z"/>
		<path style="fill:#263238;" d="M243.068,263.216V249.57h5.273v1.365h-3.368v4.549h2.61v1.348h-2.61v6.384H243.068z"/>
		<path style="fill:#263238;" d="M249.757,263.216V249.57h1.87v13.646H249.757z"/>
		<path style="fill:#263238;" d="M253.833,263.216V249.57h2.746c0.91,0,1.662,0.122,2.258,0.363
			c0.595,0.241,1.035,0.629,1.322,1.163s0.43,1.232,0.43,2.096c0,0.529-0.056,1.009-0.169,1.441
			c-0.112,0.432-0.292,0.798-0.539,1.095c-0.248,0.297-0.573,0.514-0.978,0.648l1.937,6.839h-1.836l-1.786-6.402h-1.482v6.402
			H253.833z M255.737,255.45h0.724c0.539,0,0.977-0.067,1.315-0.202c0.336-0.136,0.583-0.366,0.74-0.691
			c0.158-0.326,0.236-0.781,0.236-1.365c0-0.796-0.145-1.372-0.437-1.726c-0.292-0.354-0.87-0.531-1.736-0.531h-0.842V255.45z"/>
		<path style="fill:#263238;" d="M262.544,263.216l0.252-13.646h1.87l2.409,11.069l2.427-11.069h1.852l0.254,13.646h-1.534
			l-0.151-9.906l-2.309,9.906h-1.077l-2.291-9.906l-0.152,9.906H262.544z"/>
		<path style="fill:#263238;" d="M204.812,283.432l2.898-13.646h1.836l2.915,13.646h-1.803l-0.622-3.437h-2.78l-0.657,3.437H204.812
			z M207.508,278.631h2.273l-1.145-6.149L207.508,278.631z"/>
		<path style="fill:#263238;" d="M214.801,283.432v-12.23h-2.309v-1.416h6.453v1.416h-2.242v12.23H214.801z"/>
		<path style="fill:#263238;" d="M221.759,283.432v-12.23h-2.309v-1.416h6.453v1.416h-2.242v12.23H221.759z"/>
		<path style="fill:#263238;" d="M227.216,283.432v-13.646h5.29v1.416h-3.386v4.514h2.746v1.348h-2.746v5.003h3.419v1.365H227.216z"
			/>
		<path style="fill:#263238;" d="M234.072,283.432v-13.646h1.297l3.875,9.063v-9.063h1.583v13.646h-1.213l-3.925-9.317v9.317
			H234.072z"/>
		<path style="fill:#263238;" d="M242.967,283.432v-13.646h2.965c1.01,0,1.811,0.155,2.4,0.463c0.589,0.31,1.01,0.773,1.263,1.39
			c0.254,0.618,0.38,1.387,0.38,2.309v5.019c0,0.966-0.126,1.781-0.38,2.443c-0.252,0.664-0.662,1.165-1.23,1.508
			c-0.566,0.343-1.327,0.514-2.283,0.514H242.967z M244.871,282.066h1.077c0.696,0,1.19-0.134,1.482-0.403
			c0.292-0.27,0.469-0.664,0.532-1.18c0.06-0.515,0.092-1.139,0.092-1.87v-4.429c0-0.707-0.045-1.28-0.134-1.719
			c-0.09-0.437-0.286-0.758-0.589-0.96c-0.303-0.203-0.781-0.303-1.433-0.303h-1.027V282.066z"/>
		<path style="fill:#263238;" d="M251.103,283.432l2.898-13.646h1.836l2.915,13.646h-1.803l-0.622-3.437h-2.78l-0.657,3.437H251.103
			z M253.8,278.631h2.273l-1.145-6.149L253.8,278.631z"/>
		<path style="fill:#263238;" d="M260.134,283.432v-13.646h1.297l3.876,9.063v-9.063h1.583v13.646h-1.213l-3.925-9.317v9.317
			H260.134z"/>
		<path style="fill:#263238;" d="M272.449,283.584c-0.967,0-1.716-0.203-2.25-0.607c-0.533-0.404-0.903-0.949-1.112-1.634
			c-0.208-0.685-0.311-1.449-0.311-2.291v-4.817c0-0.921,0.103-1.725,0.311-2.41c0.208-0.684,0.578-1.215,1.112-1.592
			c0.533-0.376,1.283-0.565,2.25-0.565c0.853,0,1.53,0.158,2.029,0.473c0.5,0.314,0.86,0.764,1.079,1.348
			c0.218,0.584,0.328,1.286,0.328,2.106v1.078h-1.801v-0.96c0-0.506-0.026-0.953-0.077-1.339c-0.051-0.388-0.188-0.688-0.413-0.902
			c-0.225-0.212-0.6-0.319-1.128-0.319c-0.539,0-0.932,0.115-1.179,0.346c-0.248,0.23-0.407,0.555-0.48,0.976
			c-0.074,0.422-0.11,0.913-0.11,1.475v5.407c0,0.685,0.056,1.227,0.169,1.626c0.111,0.399,0.296,0.683,0.555,0.85
			c0.258,0.169,0.606,0.254,1.045,0.254c0.517,0,0.887-0.115,1.112-0.345c0.225-0.23,0.365-0.548,0.421-0.951
			c0.056-0.404,0.085-0.876,0.085-1.416v-1.01h1.801v1.01c0,0.832-0.1,1.564-0.303,2.199c-0.201,0.635-0.55,1.13-1.045,1.483
			C274.043,283.407,273.346,283.584,272.449,283.584z"/>
		<path style="fill:#263238;" d="M277.703,283.432v-13.646h5.29v1.416h-3.386v4.514h2.746v1.348h-2.746v5.003h3.419v1.365H277.703z"
			/>
	</g>
</g>
<g id="Character">
	<g>
		<g>
			<path style="fill:#FFFFFF;stroke:#263238;stroke-linecap:round;stroke-linejoin:round;stroke-miterlimit:10;" d="
				M372.041,463.239c0,0-4.441,6.107-6.385,6.94c-1.943,0.833-5.552,1.388-6.662,3.886c-1.11,2.498-1.11,3.886-1.11,3.886h27.482
				c0,0,1.11-3.609,0-5.829c-1.11-2.221-1.388-4.441-1.388-4.441L372.041,463.239z"/>
			<path style="fill:#FFFFFF;stroke:#263238;stroke-linecap:round;stroke-linejoin:round;stroke-miterlimit:10;" d="M385.84,475.175
				h-27.293c-0.655,1.789-0.664,2.776-0.664,2.776h27.482C385.365,477.951,385.755,476.675,385.84,475.175z"/>
		</g>
		<g>
			<path style="fill:#FFFFFF;stroke:#263238;stroke-linecap:round;stroke-linejoin:round;stroke-miterlimit:10;" d="
				M401.466,469.346l0.555,8.883h13.324c0,0,0.555-2.498-0.277-4.997c-0.833-2.498-1.666-4.719-1.666-4.719L401.466,469.346z"/>
			<path style="fill:#FFFFFF;stroke:#263238;stroke-linecap:round;stroke-linejoin:round;stroke-miterlimit:10;" d="
				M402.021,478.229h13.324c0,0,0.33-1.497,0.094-3.331h-13.627L402.021,478.229z"/>
		</g>
		<path style="fill:#263238;stroke:#263238;stroke-linecap:round;stroke-linejoin:round;stroke-miterlimit:10;" d="M361.215,333.867
			c0,0,2.221,28.87,2.776,39.141c0.555,10.271,8.05,90.231,8.05,90.231s10.826,6.662,12.214,6.662s3.054-96.338,3.054-96.338
			l14.157,95.783c0,0,2.498,0.833,4.719,0.833c2.221,0,7.217-1.665,7.217-1.665l-4.719-115.493v-19.154
			c0,0-28.037,3.886-35.532,2.776C365.656,335.532,361.215,333.867,361.215,333.867z"/>
		<polyline style="fill:none;stroke:#808080;stroke-linecap:round;stroke-linejoin:round;stroke-miterlimit:10;" points="
			395.081,351.355 388.974,356.074 387.308,373.563 		"/>
		<g>
			<g>
				<path style="fill:#B2B2B2;stroke:#263238;stroke-linecap:round;stroke-linejoin:round;stroke-miterlimit:10;" d="
					M397.597,216.565c0,0-11.323-1.418-14.645,2.446c-3.322,3.864-3.977,11.377-6.319,13.173c-2.341,1.796-3.593-0.436-4.628,1.904
					c-1.035,2.341,0.652,5.226,0.652,5.226s-0.275,11.269,1.031,11.814c1.306,0.545,6.968,0.546,6.968,0.546l-0.927,4.627
					l14.318,0.603l1.253-4.845c0,0,10.89-6.312,13.831-11.102c2.941-4.79,2.236-15.406-0.703-19.109
					C405.491,218.146,397.597,216.565,397.597,216.565z"/>
				<path style="fill:#263238;" d="M380.059,231.636c-0.353,0.848-0.915,1.421-1.255,1.28c-0.34-0.141-0.329-0.944,0.024-1.792
					c0.353-0.848,0.915-1.421,1.254-1.28C380.423,229.986,380.412,230.788,380.059,231.636z"/>
				<path style="fill:none;stroke:#263238;stroke-linecap:round;stroke-linejoin:round;stroke-miterlimit:10;" d="M373.803,241.133
					c0,0,2.164,1.083,3.455-1.04"/>
				<path style="fill:none;stroke:#263238;stroke-linecap:round;stroke-linejoin:round;stroke-miterlimit:10;" d="M380.175,227.69
					c0,0,1.457-0.79,1.623,1.624"/>
			</g>
			<path style="fill:#263238;stroke:#263238;stroke-linecap:round;stroke-linejoin:round;stroke-miterlimit:10;" d="M408.43,221.849
				c-2.939-3.703-10.832-5.283-10.832-5.283s-11.323-1.418-14.645,2.446c0,0,6.261-1.577,5.444,1.09
				c-0.817,2.667-7.297,6.749-5.065,8.328c2.232,1.579,4.736,0.382,3.701,2.723c-1.035,2.341-2.342,4.627-1.253,4.845
				c1.089,0.218,4.138-2.286,5.444-1.741c1.306,0.545,2.775,4.519,1.523,6.533c-1.253,2.014-3.594,2.395-3.594,2.395
				s2.231,5.826,4.19,7.35c0.969,0.754,1.979,0.961,2.969,0.92c2.766-1.69,10.427-6.598,12.822-10.497
				C412.074,236.167,411.369,225.551,408.43,221.849z"/>
		</g>
		<path style="fill:#FFFFFF;stroke:#263238;stroke-linecap:round;stroke-linejoin:round;stroke-miterlimit:10;" d="M359.914,334.451
			l0.797,6.374c0,0,3.983,4.249,15.403,4.515c11.419,0.266,25.494-1.062,28.947-2.125c3.452-1.062,4.249-2.124,4.249-2.124
			l-0.627-7.224C408.683,333.867,387.799,341.091,359.914,334.451z"/>
		<path style="fill:#B2B2B2;stroke:#263238;stroke-linecap:round;stroke-linejoin:round;stroke-miterlimit:10;" d="M411.094,350.168
			c0,0-0.868,3.247-1.064,4.226c-0.196,0.979,0.392,8.027,0.392,9.006c0,0.979,0.979,1.958,1.762,1.175c0,0,0.979,3.524,2.154,3.328
			c1.175-0.196,4.895-4.307,5.678-7.831c0.783-3.524-0.196-9.202-0.196-9.202L411.094,350.168z"/>
		<path style="fill:#B2B2B2;stroke:#263238;stroke-linecap:round;stroke-linejoin:round;stroke-miterlimit:10;" d="M412.575,355.177
			c0,0,0.391,1.762,1.37,2.545s0.979,0.783,0.979,0.783l0.587,3.524c0,0-0.392,2.154-0.587,3.328"/>
		
			<line style="fill:#B2B2B2;stroke:#263238;stroke-linecap:round;stroke-linejoin:round;stroke-miterlimit:10;" x1="412.183" y1="364.574" x2="412.379" y2="359.484"/>
		<path style="fill:#FFFFFF;stroke:#263238;stroke-linecap:round;stroke-linejoin:round;stroke-miterlimit:10;" d="M411.084,345.811
			c0,0,0.049,2.889,0.01,4.357c-0.039,1.468,2.885,3.877,6.608,2.939c3.724-0.939,3.793-8.232,3.793-8.232
			S416.352,348.663,411.084,345.811z"/>
		<path style="fill:#3B82F6;stroke:#263238;stroke-linecap:round;stroke-linejoin:round;stroke-miterlimit:10;" d="M409.142,264.477
			c0,0,8.066,5.274,10.238,9.307c2.172,4.033,7.446,41.883,8.066,45.917c0.621,4.033-4.964,25.13-5.895,27.922
			c-0.931,2.792-5.936,2.284-7.756,1.551c-3.57-1.437-3.723-5.274-3.723-5.274l-0.931-18.615V264.477z"/>
		<path style="fill:#3B82F6;stroke:#263238;stroke-linecap:round;stroke-linejoin:round;stroke-miterlimit:10;" d="M412.77,309.756
			c0.376-13.724,1.111-26.59,1.335-28.836c0.265-2.653-0.022-9.669-1.775-13.923c-2.794-2.762-5.796-4.763-8.573-6.189
			c-1.772-0.535-3.125-0.781-3.125-0.781l0.882-0.278c-1.804-0.777-3.442-1.311-4.768-1.665c-4.164-1.11-15.268-1.666-18.599,1.388
			c0,0-9.622,3.001-14.345,6.447c-1.399,1.771-3.861,5.508-4.301,10.348c-0.62,6.826-2.451,47.052-2.451,47.052
			s-2.221,6.662,0.555,9.993c2.776,3.331,8.605,8.328,25.539,7.773c16.933-0.555,24.999-2.789,27.277-4.898
			c0.505-0.468,0.968-1.567,1.357-2.799c0.828-2.623,1.181-5.366,1.134-8.116C412.824,320.001,412.667,309.82,412.77,309.756z"/>
		<path style="fill:#FFFFFF;stroke:#263238;stroke-linecap:round;stroke-linejoin:round;stroke-miterlimit:10;" d="M375.094,260.582
			c0,0,3.053-4.164,3.886-4.719c0.833-0.555,12.769-3.331,16.378-2.221c3.609,1.11,5.274,6.385,5.274,6.385
			S389.529,258.361,375.094,260.582z"/>
		<g>
			<path style="fill:#B2B2B2;stroke:#263238;stroke-linecap:round;stroke-linejoin:round;stroke-miterlimit:10;" d="M308.548,273.25
				c0,0-1.697-3.795-2.707-5.815c-1.01-2.02-8.585-7.743-10.1-9.595c-1.515-1.852-3.367-1.01-3.535,0.673
				c-0.168,1.683,1.515,3.535,2.02,4.208c0.505,0.673,1.683,2.357,1.683,2.357s-4.377,2.862-4.713,3.703
				c-0.337,0.842,0.673,4.208,1.01,5.387c0.337,1.178,0.842,2.357,1.683,2.357c0.842,0,0.842,0,0.842,0s1.515,1.178,2.525,1.852
				c1.01,0.673,4.471,0.635,4.471,0.635l2.43,1.385C304.158,280.396,305.363,275.53,308.548,273.25z"/>
			<path style="fill:#FFFFFF;stroke:#263238;stroke-linecap:round;stroke-linejoin:round;stroke-miterlimit:10;" d="
				M294.731,276.525c0,0-0.842-2.02-0.673-3.198"/>
		</g>
		<path style="fill:#FFFFFF;stroke:#263238;stroke-linecap:round;stroke-linejoin:round;stroke-miterlimit:10;" d="M313.394,275.583
			c0,0-3.236-1.5-4.846-2.334c-1.61-0.834-5.86,1.119-6.82,5.761c-0.961,4.642,7.106,8.643,7.106,8.643
			S307.391,279.902,313.394,275.583z"/>
		<path style="fill:#3B82F6;stroke:#263238;stroke-linecap:round;stroke-linejoin:round;stroke-miterlimit:10;" d="M375.094,260.582
			c0,0-14.972,5.446-16.833,6.687c-1.861,1.241-19.546,22.028-19.546,22.028s-20.992-11.894-23.784-13.445
			c-2.792-1.551-7.551-1.136-8.792,3.517c-1.241,4.654-0.31,8.377,3.413,11.169c3.723,2.792,27.302,18.925,30.715,20.166
			c3.413,1.241,12.1-4.964,12.1-4.964l16.133-14.271"/>
	</g>
</g>
<!-- <g id="Floor">
	<g>
		
			<line style="fill:none;stroke:#263238;stroke-linecap:round;stroke-linejoin:round;stroke-miterlimit:10;" x1="308.111" y1="478.229" x2="464.069" y2="478.229"/>
		
			<line style="fill:none;stroke:#263238;stroke-linecap:round;stroke-linejoin:round;stroke-miterlimit:10;" x1="34.439" y1="478.229" x2="300.824" y2="478.229"/>
	</g>
</g> -->
<g id="Airplane">
	<g>
		<g>
			<polygon style="fill:#FFFFFF;stroke:#263238;stroke-linecap:round;stroke-linejoin:round;stroke-miterlimit:10;" points="
				419.089,88.733 365.512,102.202 384.797,112.598 			"/>
			<polygon style="fill:#B2B2B2;stroke:#263238;stroke-linecap:round;stroke-linejoin:round;stroke-miterlimit:10;" points="
				384.797,112.598 386.445,127.532 419.089,88.733 			"/>
			<polygon style="fill:#FFFFFF;stroke:#263238;stroke-linecap:round;stroke-linejoin:round;stroke-miterlimit:10;" points="
				390.672,115.52 386.445,127.532 419.089,88.733 			"/>
			<polygon style="fill:#FFFFFF;stroke:#263238;stroke-linecap:round;stroke-linejoin:round;stroke-miterlimit:10;" points="
				419.089,88.733 390.672,115.52 406.933,126.464 			"/>
		</g>
		<g>
			<g>
				<path style="fill:none;stroke:#263238;stroke-linecap:round;stroke-linejoin:round;" d="M151.546,169.187
					c-0.575,0.319-1.156,0.644-1.743,0.973"/>
				<path style="fill:none;stroke:#263238;stroke-linecap:round;stroke-linejoin:round;stroke-dasharray:4.0264,4.0264;" d="
					M146.303,172.142c-18.105,10.357-41.037,25.062-62.486,43.407c-56.307,48.157,1.772,82.719,85.673,47.268
					c82.485-34.853,154.691-72.561,208.195-129.407"/>
				<path style="fill:none;stroke:#263238;stroke-linecap:round;stroke-linejoin:round;" d="M379.066,131.935
					c0.454-0.488,0.907-0.978,1.358-1.468"/>
			</g>
		</g>
		<path style="fill:none;stroke:#263238;stroke-linecap:round;stroke-linejoin:round;stroke-miterlimit:10;stroke-dasharray:4;" d="
			M305.183,117.109c32.669-13.107,83.816-51.049,91.783-62.65c37.987-55.312-58.907-1.88-58.907-1.88"/>
	</g>
</g>
</svg>
